<?xml version="1.0" encoding="utf-8"?>
<!-- Generator: Adobe Illustrator 27.2.0, SVG Export Plug-In . SVG Version: 6.00 Build 0)  -->
<svg version="1.1" id="Layer_1" xmlns="http://www.w3.org/2000/svg" xmlns:xlink="http://www.w3.org/1999/xlink" x="0px" y="0px"
	 viewBox="0 0 243.05 66.29" style="enable-background:new 0 0 243.05 66.29;" xml:space="preserve">
<g>
	<rect x="66.38" y="32.14" transform="matrix(0.1741 -0.9847 0.9847 0.1741 42.0199 116.386)" width="48.03" height="2"/>
	<g>
		<path d="M5.61,39.64V25.34h3.91l3.69,5.22l3.68-5.22h3.87v14.31h-4.07v-4.66c0-1.13,0.02-2.37,0.04-3.36l-0.04-0.02
			c-0.59,0.91-1.25,1.84-1.88,2.75l-1.7,2.41l-1.72-2.41c-0.65-0.91-1.28-1.84-1.88-2.75l-0.04,0.02c0.02,0.99,0.04,2.23,0.04,3.36
			v4.66H5.61z"/>
		<path d="M28.41,39.17c-0.71,0.43-1.56,0.69-2.53,0.69c-0.89,0-1.66-0.2-2.29-0.61c-0.77-0.51-1.25-1.28-1.25-2.33
			s0.49-1.86,1.15-2.33c0.75-0.55,1.78-0.73,2.73-0.73c0.53,0,1.01,0.06,1.48,0.16v-0.14c0-0.3-0.08-0.51-0.28-0.71
			c-0.3-0.28-0.79-0.36-1.3-0.36c-1.03,0-2.02,0.32-2.83,0.65v-3.04c0.83-0.38,2.13-0.71,3.6-0.71c1.4,0,2.69,0.32,3.52,0.95
			c0.87,0.65,1.21,1.56,1.21,2.79v2.81c0,0.4,0.14,0.63,0.49,0.63c0.14,0,0.3-0.04,0.45-0.12v2.69c-0.42,0.24-1.09,0.38-1.84,0.38
			c-0.81,0-1.62-0.16-2.27-0.65H28.41z M27.69,35.93c-0.18-0.04-0.44-0.06-0.57-0.06c-0.51,0-0.99,0.2-0.99,0.71
			c0,0.47,0.42,0.69,0.87,0.69c0.24,0,0.49-0.06,0.69-0.14V35.93z"/>
		<path d="M33.88,29.92h3.83v0.75l0.04,0.02c0.63-0.47,1.62-0.99,2.83-0.99c1.05,0,1.94,0.4,2.49,0.93c0.63,0.61,0.95,1.48,0.95,2.9
			v6.11H40.1v-5.51c0-0.43-0.1-0.75-0.28-0.93c-0.2-0.2-0.46-0.28-0.75-0.28c-0.46,0-0.95,0.2-1.28,0.51v6.2h-3.91V29.92z"/>
		<path d="M46.95,40.14c1.05,0.61,2.25,0.97,3.24,0.97c1.24,0,1.94-0.55,1.94-1.78v-0.42l-0.04-0.04c-0.53,0.42-1.38,0.59-2.07,0.59
			c-2.19,0-4.45-1.72-4.45-4.68c0-2.9,2.19-5.08,5.18-5.08c0.89,0,1.7,0.2,2.45,0.55l2.85-0.49v9.6c0,3.16-2.29,4.84-5.53,4.84
			c-1.32,0-2.65-0.28-3.56-0.69V40.14z M52.13,32.98c-0.24-0.12-0.55-0.18-0.87-0.18c-1.3,0-1.74,0.95-1.74,1.86
			c0,1.11,0.61,1.88,1.66,1.88c0.32,0,0.63-0.08,0.95-0.22V32.98z"/>
		<path d="M63.15,29.7c3.26,0,5.61,2.21,5.61,5.08s-2.35,5.08-5.61,5.08s-5.61-2.21-5.61-5.08S59.89,29.7,63.15,29.7z M63.15,36.6
			c1.01,0,1.74-0.79,1.74-1.82c0-1.03-0.73-1.82-1.74-1.82s-1.74,0.79-1.74,1.82C61.42,35.81,62.15,36.6,63.15,36.6z"/>
		<path d="M70.13,36.01c1.5,0.81,3.24,1.13,3.99,1.13c0.47,0,0.71-0.12,0.71-0.4c0-0.53-0.87-0.42-2.33-0.83
			c-1.88-0.53-2.73-1.44-2.73-2.85c0.02-2.09,1.96-3.36,4.52-3.36c1.17,0,2.75,0.26,3.99,0.79v3.04c-1.5-0.79-3.12-1.11-3.85-1.11
			c-0.47,0-0.67,0.14-0.67,0.38c0,0.49,0.81,0.38,2.29,0.79c1.88,0.53,2.77,1.36,2.77,2.85c-0.02,2.17-2.02,3.42-4.64,3.42
			c-1.15,0-2.79-0.24-4.05-0.81V36.01z"/>
		<path d="M81.01,24.98h3.2l-2,5.73h-2.39L81.01,24.98z"/>
		<path d="M101.8,23.71h9.66l-0.55,3.06h-6.16l-0.55,3.12h5.24l-0.51,2.9h-5.24l-0.66,3.78h6.38l-0.55,3.06h-9.88L101.8,23.71z"/>
		<path d="M124.24,38.92c-1.34,0.62-3.1,0.97-4.78,0.97c-4.38,0-7.7-2.46-7.7-7.02c0-2.44,0.97-5.06,2.91-6.93
			c1.63-1.56,3.81-2.46,6.4-2.46c1.83,0,3.54,0.48,5.06,1.23l-0.62,3.48c-1.43-0.95-3.01-1.56-4.62-1.56s-2.95,0.57-3.89,1.54
			c-1.12,1.14-1.72,2.79-1.72,4.38c0,2.57,1.58,4.29,4.45,4.29c0.55,0,1.03-0.09,1.41-0.18l0.46-2.57h-2.53l0.51-2.9h6.03
			L124.24,38.92z"/>
		<path d="M129.56,23.71h4.51c2.11,0,3.65,0.35,4.75,1.21c0.99,0.77,1.65,1.94,1.65,3.39c0,1.41-0.62,2.99-1.96,4.09
			c-1.23,1.03-2.93,1.54-5.13,1.54h-2.13l-1.01,5.7h-3.5L129.56,23.71z M133.78,31.11c1.19,0,1.89-0.22,2.4-0.68
			c0.44-0.37,0.77-0.97,0.77-1.74c0-0.64-0.26-1.12-0.7-1.43c-0.51-0.35-1.25-0.48-2.22-0.48h-1.5l-0.77,4.33H133.78z"/>
		<path d="M148.59,23.71h4.03c2.68,0,4.62,0.62,5.98,1.63c1.61,1.21,2.6,3.12,2.6,5.5c0,2.35-0.95,4.82-2.97,6.56
			c-1.65,1.41-3.89,2.24-6.84,2.24h-5.61L148.59,23.71z M151.63,36.59c2.09,0,3.52-0.59,4.51-1.63c1.01-1.06,1.54-2.51,1.54-3.92
			c0-1.3-0.44-2.49-1.5-3.28c-0.84-0.64-2-0.99-3.67-0.99h-0.95l-1.74,9.81H151.63z"/>
		<path d="M171.32,39.2c-0.97,0.42-2.33,0.68-3.54,0.68c-2.95,0-5.59-1.58-5.59-4.91c0-1.65,0.66-3.41,1.89-4.64
			c1.14-1.14,2.64-1.76,4.27-1.76c2.57,0,4.77,1.56,4.77,4.53c0,0.59-0.09,1.39-0.26,2h-7.37c0.15,1.5,1.25,2.18,2.73,2.18
			c1.23,0,2.68-0.48,3.65-0.99L171.32,39.2z M170.08,33c-0.02-1.17-0.77-1.87-1.89-1.87c-1.14,0-1.98,0.77-2.42,1.87H170.08z"/>
		<path d="M174.7,35.71c1.28,0.95,3.15,1.56,4.33,1.56c0.37,0,0.7-0.07,0.92-0.2c0.22-0.13,0.35-0.35,0.35-0.59
			c0-0.73-1.14-0.79-2.58-1.25c-1.63-0.53-2.68-1.3-2.68-2.84c0-1.21,0.64-2.31,1.76-3.01c0.84-0.53,1.87-0.79,3.04-0.79
			c1.39,0,2.93,0.35,4.25,1.03l-0.48,2.79c-1.23-0.77-2.86-1.21-4-1.21c-0.35,0-0.59,0.04-0.79,0.13c-0.2,0.09-0.4,0.29-0.4,0.59
			c0,0.73,1.01,0.75,2.49,1.19c1.67,0.51,2.77,1.28,2.77,2.86c0,1.08-0.51,2.13-1.3,2.82c-0.9,0.77-2.16,1.1-3.52,1.1
			c-1.56,0-3.26-0.42-4.69-1.23L174.7,35.71z"/>
		<path d="M187,28.82h3.34l-1.91,10.83h-3.34L187,28.82z M189.4,23.47c1.06,0,1.83,0.84,1.83,1.83c0,1.14-0.92,2-2.05,2
			c-1.06,0-1.83-0.84-1.83-1.83C187.35,24.33,188.28,23.47,189.4,23.47z"/>
		<path d="M198.09,38.76c-0.68,0.46-1.43,0.75-2.35,0.75c-2.29,0-4.22-1.76-4.22-4.55c0-1.63,0.66-3.43,1.94-4.67
			c1.08-1.06,2.62-1.72,4.53-1.72c1.74,0,3.67,0.53,5.08,1.25l-1.63,9.22c-0.66,3.7-2.82,5.68-6.47,5.68
			c-1.34,0-2.64-0.26-3.96-0.92l0.55-3.12c1.01,0.64,2.38,1.19,3.63,1.19c1.52,0,2.53-0.77,2.84-2.46l0.11-0.62L198.09,38.76z
			 M199.39,31.68c-0.37-0.18-1.03-0.33-1.63-0.33c-1.01,0-1.67,0.44-2.11,0.95c-0.59,0.7-0.84,1.61-0.84,2.33
			c0,1.34,0.81,2.2,2.07,2.2c0.59,0,1.19-0.2,1.69-0.53L199.39,31.68z"/>
		<path d="M206.05,28.82h3.28l-0.18,0.99l0.04,0.02c1.17-0.97,2.38-1.25,3.32-1.25c2.09,0,3.34,1.36,3.34,3.37
			c0,0.37-0.04,0.79-0.13,1.32l-1.12,6.38h-3.34l1.08-6.12c0.04-0.24,0.09-0.55,0.09-0.79c0-0.73-0.4-1.28-1.34-1.28
			c-0.79,0-1.67,0.37-2.33,0.9l-1.28,7.28h-3.34L206.05,28.82z"/>
		<path d="M226.73,39.2c-0.97,0.42-2.33,0.68-3.54,0.68c-2.95,0-5.59-1.58-5.59-4.91c0-1.65,0.66-3.41,1.89-4.64
			c1.14-1.14,2.64-1.76,4.27-1.76c2.57,0,4.77,1.56,4.77,4.53c0,0.59-0.09,1.39-0.26,2h-7.37c0.15,1.5,1.25,2.18,2.73,2.18
			c1.23,0,2.68-0.48,3.65-0.99L226.73,39.2z M225.5,33c-0.02-1.17-0.77-1.87-1.89-1.87c-1.14,0-1.98,0.77-2.42,1.87H225.5z"/>
		<path d="M229.59,39.64l1.91-10.83h3.28l-0.24,1.45l0.04,0.02c0.81-0.92,1.89-1.61,3.1-1.61c0.26,0,0.59,0.04,0.88,0.15l-0.48,3.12
			c-0.31-0.09-0.64-0.15-0.95-0.15c-1.19,0-2.35,0.55-3.06,1.28l-1.14,6.56H229.59z"/>
	</g>
</g>
</svg>
